<svg  viewBox="0 0 16 16" fill="none" xmlns="http://www.w3.org/2000/svg">
<path d="M9.33319 7.33333H8.66652V6.66667C8.66652 6.48986 8.59629 6.32029 8.47126 6.19526C8.34624 6.07024 8.17667 6 7.99986 6C7.82305 6 7.65348 6.07024 7.52845 6.19526C7.40343 6.32029 7.33319 6.48986 7.33319 6.66667V7.33333H6.66652C6.48971 7.33333 6.32014 7.40357 6.19512 7.5286C6.0701 7.65362 5.99986 7.82319 5.99986 8C5.99986 8.17681 6.0701 8.34638 6.19512 8.4714C6.32014 8.59643 6.48971 8.66667 6.66652 8.66667H7.33319V9.33333C7.33319 9.51014 7.40343 9.67971 7.52845 9.80474C7.65348 9.92976 7.82305 10 7.99986 10C8.17667 10 8.34624 9.92976 8.47126 9.80474C8.59629 9.67971 8.66652 9.51014 8.66652 9.33333V8.66667H9.33319C9.51 8.66667 9.67957 8.59643 9.80459 8.4714C9.92962 8.34638 9.99986 8.17681 9.99986 8C9.99986 7.82319 9.92962 7.65362 9.80459 7.5286C9.67957 7.40357 9.51 7.33333 9.33319 7.33333ZM13.4399 3.33333C12.729 2.6298 11.7901 2.20351 10.7925 2.13139C9.795 2.05926 8.80454 2.34605 7.99986 2.94C7.15163 2.30909 6.09585 2.02301 5.04514 2.13936C3.99442 2.25571 3.02682 2.76585 2.33717 3.56706C1.64753 4.36826 1.28707 5.40101 1.32839 6.45734C1.36971 7.51367 1.80974 8.51511 2.55986 9.26L6.55986 13.2933C6.93486 13.6679 7.44319 13.8782 7.97319 13.8782C8.50319 13.8782 9.01152 13.6679 9.38652 13.2933L13.3865 9.26C13.7805 8.8751 14.0945 8.41614 14.3105 7.90949C14.5265 7.40284 14.6402 6.8585 14.6452 6.30775C14.6502 5.757 14.5462 5.21071 14.3394 4.70025C14.1325 4.1898 13.8268 3.72526 13.4399 3.33333ZM12.4999 8.30667L8.49986 12.3067C8.43788 12.3692 8.36415 12.4187 8.28291 12.4526C8.20167 12.4864 8.11453 12.5039 8.02652 12.5039C7.93852 12.5039 7.85138 12.4864 7.77014 12.4526C7.6889 12.4187 7.61517 12.3692 7.55319 12.3067L3.55319 8.30667C3.03036 7.77223 2.7376 7.05431 2.7376 6.30667C2.7376 5.55902 3.03036 4.8411 3.55319 4.30667C4.08596 3.78066 4.80451 3.48571 5.55319 3.48571C6.30188 3.48571 7.02042 3.78066 7.55319 4.30667C7.61517 4.36915 7.6889 4.41875 7.77014 4.45259C7.85138 4.48644 7.93852 4.50387 8.02652 4.50387C8.11453 4.50387 8.20167 4.48644 8.28291 4.45259C8.36415 4.41875 8.43788 4.36915 8.49986 4.30667C9.03263 3.78066 9.75117 3.48571 10.4999 3.48571C11.2485 3.48571 11.9671 3.78066 12.4999 4.30667C13.0267 4.8417 13.322 5.56246 13.322 6.31333C13.322 7.06421 13.0267 7.78497 12.4999 8.32V8.30667Z" fill="currentColor"/>
</svg>
