<svg viewBox="0 0 12 12" fill="none" xmlns="http://www.w3.org/2000/svg">
<g id="location_searching_24px">
<path id="icon/device/location_searching_24px" fill-rule="evenodd" clip-rule="evenodd" d="M6.5 1.53C8.585 1.76 10.24 3.415 10.47 5.5H11.5V6.5H10.47C10.24 8.585 8.585 10.24 6.5 10.47V11.5H5.5V10.47C3.415 10.24 1.76 8.585 1.53 6.5H0.5V5.5H1.53C1.76 3.415 3.415 1.76 5.5 1.53V0.5H6.5V1.53ZM2.5 6C2.5 7.935 4.065 9.5 6 9.5C7.935 9.5 9.5 7.935 9.5 6C9.5 4.065 7.935 2.5 6 2.5C4.065 2.5 2.5 4.065 2.5 6Z" fill="currentColor" fill-opacity="0.54"/>
</g>
</svg>
