<svg viewBox="0 0 20 20" fill="none" xmlns="http://www.w3.org/2000/svg">
<g id="shopping_basket_24px">
<path id="icon/action/shopping_basket_24px" fill-rule="evenodd" clip-rule="evenodd" d="M18.3335 7.5H14.3418L10.6835 2.025C10.3502 1.53333 9.62516 1.53333 9.30016 2.025L5.64183 7.5H1.66683C1.2085 7.5 0.833496 7.875 0.833496 8.33333C0.833496 8.40833 0.841829 8.48333 0.866829 8.55833L2.9835 16.2833C3.17516 16.9833 3.81683 17.5 4.5835 17.5H15.4168C16.1835 17.5 16.8252 16.9833 17.0252 16.2833L19.1418 8.55833L19.1668 8.33333C19.1668 7.875 18.7918 7.5 18.3335 7.5ZM9.99183 3.99167L12.3335 7.5H7.65016L9.99183 3.99167ZM8.3335 12.5C8.3335 13.4167 9.0835 14.1667 10.0002 14.1667C10.9168 14.1667 11.6668 13.4167 11.6668 12.5C11.6668 11.5833 10.9168 10.8333 10.0002 10.8333C9.0835 10.8333 8.3335 11.5833 8.3335 12.5Z" fill="currentColor"/>
</g>
</svg>
