<svg  viewBox="0 0 12 12" fill="none" xmlns="http://www.w3.org/2000/svg">
<g id="timer_24px">
<path id="icon/image/timer_24px" fill-rule="evenodd" clip-rule="evenodd" d="M4.5 0.5H7.5V1.5H4.5V0.5ZM5.5 7V4H6.5V7H5.5ZM9.515 3.695L10.225 2.985C10.01 2.73 9.775 2.49 9.52 2.28L8.81 2.99C8.035 2.37 7.06 2 6 2C3.515 2 1.5 4.015 1.5 6.5C1.5 8.985 3.51 11 6 11C8.49 11 10.5 8.985 10.5 6.5C10.5 5.44 10.13 4.465 9.515 3.695ZM2.5 6.5C2.5 8.435 4.065 10 6 10C7.935 10 9.5 8.435 9.5 6.5C9.5 4.565 7.935 3 6 3C4.065 3 2.5 4.565 2.5 6.5Z" fill="currentColor"/>
</g>
</svg>
